<svg xmlns="http://www.w3.org/2000/svg" xmlns:xlink="http://www.w3.org/1999/xlink" width="200" zoomAndPan="magnify" viewBox="0 0 150 149.999998" height="200" preserveAspectRatio="xMidYMid meet" version="1.0"><path fill="#33d1b3" d="M 75 0 C 95.699219 0 114.480469 8.429688 128.011719 21.960938 C 141.601562 35.550781 149.96875 54.269531 149.96875 74.96875 C 149.96875 95.730469 141.601562 114.449219 128.011719 128.039062 C 114.480469 141.570312 95.699219 150 75 150 C 54.300781 150 35.519531 141.570312 21.988281 128.039062 C 8.398438 114.449219 0.03125 95.730469 0.03125 74.96875 C 0.03125 54.269531 8.398438 35.550781 21.988281 21.960938 C 35.519531 8.429688 54.300781 0 75 0 Z M 24.03125 58.710938 C 25.679688 60.359375 27.960938 61.378906 30.511719 61.378906 L 30.570312 61.378906 C 33.058594 61.378906 35.339844 60.359375 37.050781 58.710938 C 38.699219 57.058594 39.71875 54.71875 39.71875 52.230469 C 39.71875 49.679688 38.699219 47.398438 37.050781 45.75 C 35.339844 44.101562 33.058594 43.019531 30.511719 43.019531 C 28.019531 43.019531 25.679688 44.101562 24.03125 45.75 C 22.378906 47.398438 21.359375 49.679688 21.359375 52.230469 C 21.359375 54.71875 22.378906 57.058594 24.03125 58.710938 Z M 19.949219 41.640625 C 22.679688 38.910156 26.429688 37.261719 30.539062 37.261719 C 34.679688 37.261719 38.460938 38.910156 41.128906 41.640625 C 43.859375 44.371094 45.511719 48.058594 45.511719 52.230469 C 45.511719 56.398438 43.859375 60.089844 41.128906 62.820312 C 41.011719 62.941406 40.890625 63.058594 40.800781 63.148438 C 45.300781 64.679688 49.289062 67.261719 52.558594 70.5 L 52.800781 70.769531 L 53.039062 70.5 C 56.339844 67.261719 60.328125 64.710938 64.800781 63.148438 C 64.679688 63.03125 64.558594 62.910156 64.46875 62.820312 C 61.738281 60.089844 60.089844 56.398438 60.089844 52.230469 C 60.089844 48.058594 61.738281 44.371094 64.46875 41.640625 C 67.140625 38.910156 70.890625 37.261719 75.058594 37.261719 C 79.171875 37.261719 82.921875 38.910156 85.648438 41.640625 C 88.320312 44.371094 90.03125 48.058594 90.03125 52.230469 C 90.03125 56.398438 88.320312 60.089844 85.648438 62.820312 C 85.53125 62.941406 85.410156 63.058594 85.320312 63.148438 C 89.761719 64.679688 93.808594 67.261719 97.050781 70.5 L 97.320312 70.769531 L 97.558594 70.5 C 100.800781 67.261719 104.851562 64.710938 109.289062 63.148438 C 109.171875 63.03125 109.050781 62.910156 108.960938 62.820312 C 106.289062 60.089844 104.578125 56.339844 104.578125 52.230469 C 104.578125 48.089844 106.289062 44.371094 108.960938 41.640625 C 111.691406 38.910156 115.441406 37.261719 119.550781 37.261719 C 123.691406 37.261719 127.46875 38.910156 130.140625 41.640625 C 132.871094 44.371094 134.519531 48.058594 134.519531 52.230469 C 134.519531 56.398438 132.871094 60.089844 130.140625 62.820312 C 130.019531 62.941406 129.898438 63.058594 129.808594 63.148438 C 132.808594 64.171875 135.601562 65.699219 138.121094 67.53125 C 140.519531 69.300781 142.558594 71.339844 144.328125 73.679688 C 144 55.078125 136.320312 38.308594 124.078125 26.070312 C 111.570312 13.558594 94.261719 5.820312 75.148438 5.820312 C 56.039062 5.820312 38.609375 13.53125 26.039062 26.039062 C 13.800781 38.28125 6.121094 55.050781 5.789062 73.648438 C 7.558594 71.308594 9.660156 69.269531 12 67.5 C 14.488281 65.671875 17.339844 64.140625 20.308594 63.121094 C 20.191406 63 20.070312 62.878906 19.980469 62.789062 C 17.308594 60.058594 15.601562 56.308594 15.601562 52.199219 C 15.570312 48.058594 17.28125 44.371094 19.949219 41.640625 Z M 30.570312 67.171875 L 30.511719 67.171875 C 24.808594 67.171875 19.589844 69.058594 15.449219 72.179688 C 11.25 75.238281 8.101562 79.621094 6.449219 84.628906 C 8.550781 99.871094 15.660156 113.578125 26.011719 123.929688 C 38.578125 136.441406 55.859375 144.179688 75 144.179688 C 94.140625 144.179688 111.421875 136.441406 123.929688 123.929688 C 134.339844 113.519531 141.390625 99.871094 143.550781 84.628906 C 141.898438 79.621094 138.71875 75.238281 134.550781 72.179688 C 130.351562 69.058594 125.160156 67.171875 119.488281 67.171875 L 119.429688 67.171875 C 112.441406 67.171875 106.109375 70.019531 101.578125 74.550781 C 101.339844 74.789062 101.128906 75 100.890625 75.238281 C 104.191406 80.191406 106.109375 86.101562 106.109375 92.488281 C 106.109375 95.96875 105.480469 99.359375 104.398438 102.628906 C 103.261719 105.808594 101.609375 108.898438 99.511719 111.628906 L 99.449219 111.691406 L 99.449219 111.75 L 99.390625 111.75 L 99.328125 111.808594 C 99.058594 112.140625 98.640625 112.441406 98.25 112.621094 L 98.070312 112.621094 L 98.011719 112.679688 L 97.890625 112.679688 L 97.828125 112.738281 L 97.710938 112.738281 C 97.019531 112.859375 96.328125 112.738281 95.730469 112.410156 L 95.671875 112.351562 L 95.609375 112.351562 L 95.609375 112.289062 L 95.550781 112.289062 L 95.488281 112.230469 L 95.429688 112.230469 L 95.429688 112.171875 L 95.371094 112.109375 L 95.308594 112.109375 L 95.308594 112.050781 C 95.128906 111.929688 95.039062 111.78125 94.921875 111.601562 C 92.820312 108.871094 91.171875 105.839844 90.089844 102.660156 C 88.949219 99.421875 88.378906 96 88.378906 92.519531 C 88.378906 86.160156 90.269531 80.21875 93.570312 75.269531 C 93.328125 75.03125 93.179688 74.820312 92.941406 74.578125 C 88.320312 70.019531 82.019531 67.199219 75.089844 67.199219 L 74.96875 67.199219 C 67.980469 67.199219 61.648438 70.050781 57.121094 74.578125 C 56.878906 74.820312 56.671875 75.03125 56.488281 75.269531 C 59.730469 80.21875 61.679688 86.128906 61.679688 92.519531 C 61.679688 96 61.109375 99.390625 59.96875 102.660156 C 58.890625 105.839844 57.238281 108.871094 55.140625 111.601562 C 54.960938 111.839844 54.808594 111.988281 54.570312 112.171875 C 53.941406 112.679688 53.191406 112.859375 52.46875 112.800781 L 52.410156 112.738281 L 52.171875 112.738281 C 52.050781 112.679688 51.929688 112.679688 51.839844 112.621094 L 51.78125 112.621094 L 51.71875 112.558594 L 51.628906 112.558594 L 51.570312 112.5 L 51.511719 112.5 L 51.449219 112.441406 C 51.210938 112.320312 51 112.199219 50.820312 112.050781 L 50.761719 111.988281 C 50.640625 111.871094 50.519531 111.75 50.429688 111.601562 C 48.328125 108.871094 46.679688 105.839844 45.601562 102.660156 C 44.460938 99.421875 43.890625 96 43.890625 92.519531 C 43.890625 86.160156 45.808594 80.21875 49.109375 75.269531 C 48.871094 75.03125 48.660156 74.820312 48.421875 74.578125 C 43.890625 70.019531 37.558594 67.171875 30.570312 67.171875 Z M 75 42.988281 C 72.449219 42.988281 70.171875 44.070312 68.519531 45.71875 C 66.871094 47.371094 65.789062 49.648438 65.789062 52.199219 C 65.789062 54.691406 66.871094 57.03125 68.519531 58.679688 C 70.171875 60.328125 72.449219 61.351562 74.941406 61.351562 L 75.058594 61.351562 C 77.550781 61.351562 79.828125 60.328125 81.480469 58.679688 C 83.128906 57.03125 84.148438 54.691406 84.148438 52.199219 C 84.148438 49.648438 83.128906 47.371094 81.480469 45.71875 C 79.828125 44.070312 77.488281 42.988281 75 42.988281 Z M 97.230469 104.609375 C 97.921875 103.410156 98.488281 102.121094 98.941406 100.738281 C 99.839844 98.128906 100.320312 95.339844 100.320312 92.488281 C 100.320312 88.109375 99.179688 83.96875 97.261719 80.371094 C 95.28125 83.941406 94.140625 88.109375 94.140625 92.488281 C 94.140625 95.339844 94.648438 98.128906 95.550781 100.738281 C 96 102.089844 96.570312 103.410156 97.230469 104.609375 Z M 52.769531 104.609375 C 53.460938 103.410156 54.03125 102.121094 54.480469 100.738281 C 55.378906 98.128906 55.859375 95.339844 55.859375 92.488281 C 55.859375 88.109375 54.78125 83.96875 52.800781 80.371094 C 50.820312 83.941406 49.738281 88.109375 49.738281 92.488281 C 49.738281 95.339844 50.191406 98.128906 51.121094 100.738281 C 51.511719 102.089844 52.078125 103.410156 52.769531 104.609375 Z M 119.429688 42.988281 C 116.941406 42.988281 114.601562 44.070312 112.949219 45.71875 C 111.300781 47.371094 110.28125 49.648438 110.28125 52.199219 C 110.28125 54.691406 111.300781 57.03125 112.949219 58.679688 C 114.601562 60.328125 116.941406 61.351562 119.429688 61.351562 L 119.488281 61.351562 C 121.980469 61.351562 124.261719 60.328125 125.96875 58.679688 C 127.621094 57.03125 128.640625 54.691406 128.640625 52.199219 C 128.640625 49.648438 127.621094 47.371094 125.96875 45.71875 C 124.261719 44.070312 121.980469 42.988281 119.429688 42.988281 Z M 119.429688 61.378906 Z M 119.429688 61.378906 " fill-opacity="1" fill-rule="nonzero"/></svg>